<svg width="20" height="20" viewBox="0 0 20 20" fill="none" xmlns="http://www.w3.org/2000/svg">
<mask id="mask0_58_2851" style="mask-type:luminance" maskUnits="userSpaceOnUse" x="0" y="0" width="20" height="20">
<path d="M19.4 19.4V0.600002H0.6V19.4H19.4Z" fill="white" stroke="white" stroke-width="1.2"/>
</mask>
<g mask="url(#mask0_58_2851)">
<path d="M17.0703 4.7125C17.0695 4.7125 17.0672 4.71279 17.0646 4.71385C17.0625 4.71475 17.0612 4.71578 17.0604 4.71661C17.0595 4.71745 17.0585 4.71878 17.0576 4.72089C17.0565 4.72341 17.0562 4.72572 17.0562 4.72656C17.0562 4.72741 17.0565 4.72972 17.0576 4.73223C17.0585 4.73435 17.0595 4.73568 17.0604 4.73651C17.0612 4.73734 17.0625 4.73838 17.0646 4.73927C17.0672 4.74034 17.0695 4.74063 17.0703 4.74063C17.0712 4.74063 17.0735 4.74034 17.076 4.73927C17.0781 4.73838 17.0794 4.73734 17.0803 4.73651C17.0811 4.73568 17.0821 4.73435 17.083 4.73223C17.0841 4.72972 17.0844 4.72741 17.0844 4.72656C17.0844 4.72572 17.0841 4.72341 17.083 4.72089C17.0821 4.71878 17.0811 4.71745 17.0803 4.71661C17.0794 4.71578 17.0781 4.71475 17.076 4.71385C17.0735 4.71279 17.0712 4.7125 17.0703 4.7125Z" fill="#00162E" stroke="#00162E" stroke-width="1.2"/>
<path d="M15.8985 8.24217H4.10159L2.92972 9.41405V10.5859H17.0703V9.41405L15.8985 8.24217Z" stroke="#00162E" stroke-width="1.2" stroke-miterlimit="10" stroke-linecap="round" stroke-linejoin="round"/>
<path d="M5.3125 12.9297C5.3125 15.5185 3.17477 17.6172 0.585938 17.6172" stroke="#00162E" stroke-width="1.2" stroke-miterlimit="10" stroke-linecap="round" stroke-linejoin="round"/>
<path d="M19.4141 17.6172C16.8252 17.6172 14.6875 15.5185 14.6875 12.9297" stroke="#00162E" stroke-width="1.2" stroke-miterlimit="10" stroke-linecap="round" stroke-linejoin="round"/>
<path d="M7.65625 12.9297V15.2734C7.65625 16.5679 6.60691 17.6172 5.3125 17.6172" stroke="#00162E" stroke-width="1.2" stroke-miterlimit="10" stroke-linecap="round" stroke-linejoin="round"/>
<path d="M12.3438 12.9297V15.2734C12.3438 16.5679 13.3931 17.6172 14.6875 17.6172" stroke="#00162E" stroke-width="1.2" stroke-miterlimit="10" stroke-linecap="round" stroke-linejoin="round"/>
<path d="M10 12.9297V17.6172" stroke="#00162E" stroke-width="1.2" stroke-miterlimit="10" stroke-linecap="round" stroke-linejoin="round"/>
<path d="M17.0703 9.41406H18.2422L19.4141 8.24219V2.38281H0.585938V8.24219L1.75781 9.41406H2.92969" stroke="#00162E" stroke-width="1.2" stroke-miterlimit="10" stroke-linecap="round" stroke-linejoin="round"/>
</g>
</svg>
