<svg width="22" height="22" viewBox="0 0 22 22" fill="none" xmlns="http://www.w3.org/2000/svg">
<path d="M14.7344 8.51057V11.0002C14.7344 13.0627 13.0624 14.7347 10.9999 14.7347C8.93743 14.7347 7.26547 13.0627 7.26547 11.0002V8.51057" stroke="#00162E" stroke-width="1.2" stroke-miterlimit="10" stroke-linejoin="round"/>
<path d="M7.26597 6.02034C6.5785 6.02034 6.02115 6.57765 6.02115 7.26516V8.50997H15.9796V7.26516C15.9796 6.57769 15.4223 6.02034 14.7348 6.02034" stroke="#00162E" stroke-width="1.2" stroke-miterlimit="10" stroke-linecap="round" stroke-linejoin="round"/>
<path d="M9.75488 3.5311V1H12.2445V3.5311" stroke="#00162E" stroke-width="1.2" stroke-miterlimit="10" stroke-linecap="round" stroke-linejoin="round"/>
<path d="M7.26547 6.02107V4.77625C7.26547 3.40127 8.38013 2.28662 9.75511 2.28662" stroke="#00162E" stroke-width="1.2" stroke-miterlimit="10" stroke-linecap="round" stroke-linejoin="round"/>
<path d="M12.2451 2.28662C13.6201 2.28662 14.7348 3.40127 14.7348 4.77625V6.02107" stroke="#00162E" stroke-width="1.2" stroke-miterlimit="10" stroke-linecap="round" stroke-linejoin="round"/>
<path d="M14.7345 14.9419V15.9793C14.7345 17.3542 13.6198 18.4689 12.2448 18.4689H9.7552C8.38022 18.4689 7.26556 17.3542 7.26556 15.9793V14.9419" stroke="#00162E" stroke-width="1.2" stroke-miterlimit="10" stroke-linecap="round" stroke-linejoin="round"/>
<path d="M17.224 15.3571V21.0002" stroke="#00162E" stroke-width="1.2" stroke-miterlimit="10"/>
<path d="M4.77603 21.0002V15.3571" stroke="#00162E" stroke-width="1.2" stroke-miterlimit="10"/>
<path d="M8.50637 13.868C8.46122 14.4326 8.03722 14.8133 7.4702 14.9078L4.162 15.4592C2.36131 15.7593 1 17.3173 1 19.1428V21H21V19.1428C21 17.3173 19.6387 15.7593 17.838 15.4592L14.5298 14.9078C13.9627 14.8133 13.5388 14.4065 13.4936 13.8419" stroke="#00162E" stroke-width="1.2" stroke-miterlimit="10" stroke-linecap="round" stroke-linejoin="round"/>
</svg>
