<svg width="22" height="22" viewBox="0 0 22 22" fill="none" xmlns="http://www.w3.org/2000/svg">
<path d="M14.6323 12.4347V15.8103L7.36719 17.0761V12.5942" stroke="#00162E" stroke-width="1.2" stroke-miterlimit="22.9256" stroke-linecap="round" stroke-linejoin="round"/>
<path d="M13.9671 3.17554L15.2024 1L17.3584 2.26583L16.1232 4.44132" stroke="#00162E" stroke-width="1.2" stroke-miterlimit="22.9256" stroke-linecap="round" stroke-linejoin="round"/>
<path d="M1 12.4347H21" stroke="#00162E" stroke-width="1.2" stroke-miterlimit="22.9256" stroke-linecap="round" stroke-linejoin="round"/>
<path d="M20.211 12.4347L19.5634 19.4696C19.4832 20.3402 18.7706 21.0001 17.9107 21.0001H4.08647C3.22647 21.0001 2.51378 20.3399 2.43382 19.4692L1.74545 12.5291" stroke="#00162E" stroke-width="1.2" stroke-miterlimit="22.9256" stroke-linecap="round" stroke-linejoin="round"/>
<path d="M12.4941 12.2069C12.4941 8.28351 12.4941 9.69311 12.4941 5.7697L13.9672 3.17529L16.1232 4.44112L15.3701 5.76775L16.2477 6.20891C17.2772 6.7264 17.8883 7.72684 17.8883 8.89463V12.4344" stroke="#00162E" stroke-width="1.2" stroke-miterlimit="22.9256" stroke-linecap="round" stroke-linejoin="round"/>
<path d="M4.44409 12.4344V9.3965L3.18262 6.97575" stroke="#00162E" stroke-width="1.2" stroke-miterlimit="22.9256" stroke-linecap="round" stroke-linejoin="round"/>
<path d="M8.22056 6.86507L6.93423 9.39652V12.3182" stroke="#00162E" stroke-width="1.2" stroke-miterlimit="22.9256" stroke-linecap="round" stroke-linejoin="round"/>
<path fill-rule="evenodd" clip-rule="evenodd" d="M2.01563 4.33334H9.36192C9.92053 4.33334 10.3776 4.79811 10.3776 5.36611V6.86495H1V5.36611C1 4.79807 1.45702 4.33334 2.01563 4.33334Z" stroke="#00162E" stroke-width="1.2" stroke-miterlimit="22.9256" stroke-linecap="round" stroke-linejoin="round"/>
</svg>
