<svg width="317" height="260" viewBox="0 0 317 260" fill="none" xmlns="http://www.w3.org/2000/svg">
<circle cx="159" cy="130" r="130" fill="#D9D9D9"/>
<path d="M158.5 130C167.217 130 174.683 127.085 180.896 121.254C187.109 115.422 190.211 108.421 190.2 100.25C190.2 92.0687 187.093 85.0627 180.88 79.2316C174.667 73.4006 167.207 70.4901 158.5 70.5C149.783 70.5 142.317 73.4155 136.104 79.2465C129.891 85.0776 126.789 92.0786 126.8 100.25C126.8 108.431 129.907 115.437 136.12 121.268C142.333 127.099 149.793 130.01 158.5 130Z" fill="black"/>
<path d="M95.1 181.319C95.1 185.837 98.7629 189.5 103.281 189.5H213.719C218.237 189.5 221.9 185.837 221.9 181.319V181.319C221.9 170.41 216.088 161.609 204.465 154.916C192.842 148.222 177.52 144.875 158.5 144.875C139.48 144.875 124.158 148.222 112.535 154.916C100.912 161.609 95.1 170.41 95.1 181.319V181.319Z" fill="black"/>
</svg>
