<svg width="18" height="20" viewBox="0 0 18 20" fill="none" xmlns="http://www.w3.org/2000/svg">
<path d="M12.25 7.80053C13.1125 6.21846 13.2162 4.60893 12.1614 3.09354C12.1132 3.97514 11.4765 4.73225 10.4102 4.97452C10.7476 2.82912 9.38704 1.72174 7.77915 0.833344C7.77915 0.833344 9.04556 3.13127 6.8272 5.23241L6.00657 3.26612C4.83669 4.74311 4.74091 6.40272 5.56946 7.80053" stroke="#00162E" stroke-width="1.2" stroke-miterlimit="10" stroke-linejoin="round"/>
<path d="M13.9227 9.72661L16.4502 8.98434" stroke="#00162E" stroke-width="1.2" stroke-miterlimit="10" stroke-linecap="round" stroke-linejoin="round"/>
<path d="M1.5 8.98434L4.04375 9.73141" stroke="#00162E" stroke-width="1.2" stroke-miterlimit="10" stroke-linecap="round" stroke-linejoin="round"/>
<path d="M6.20997 12.0444L4.41678 20.0001" stroke="#00162E" stroke-width="1.2" stroke-miterlimit="10" stroke-linecap="square" stroke-linejoin="round"/>
<path d="M11.745 12.0492L13.3986 19.9339" stroke="#00162E" stroke-width="1.2" stroke-miterlimit="10" stroke-linecap="round" stroke-linejoin="round"/>
<path d="M3.62241 7.80029C3.62241 10.5383 6.02217 12.7579 8.98241 12.7579C11.9427 12.7579 14.3424 10.5383 14.3424 7.80029H3.62241Z" stroke="#00162E" stroke-width="1.2" stroke-miterlimit="10" stroke-linecap="round" stroke-linejoin="round"/>
<path d="M12.404 15.1921H5.53806" stroke="#00162E" stroke-width="1.2" stroke-miterlimit="10" stroke-linecap="round" stroke-linejoin="round"/>
</svg>
