<svg width="22" height="22" viewBox="0 0 22 22" fill="none" xmlns="http://www.w3.org/2000/svg">
<path d="M6.36746 15.6323L3.64648 18.3532" stroke="#00162E" stroke-width="1.2" stroke-miterlimit="10" stroke-linecap="round" stroke-linejoin="round"/>
<path d="M7.08398 4.15103L9.77699 6.84408" stroke="#00162E" stroke-width="1.2" stroke-miterlimit="10" stroke-linecap="round" stroke-linejoin="round"/>
<path d="M15.1562 12.2298L17.8492 14.9228" stroke="#00162E" stroke-width="1.2" stroke-miterlimit="10" stroke-linecap="round" stroke-linejoin="round"/>
<path d="M14.4468 18.3253C11.4722 21.2999 6.62128 21.3279 3.64667 18.3533C0.672061 15.3787 0.700108 10.5278 3.67472 7.5532L9.80511 1.42969L12.4981 4.1227L6.36773 10.2462C4.88042 11.7335 4.88042 14.1449 6.36773 15.6323C7.85503 17.1196 10.2664 17.1196 11.7537 15.6323L17.8773 9.50875L20.5703 12.2018L14.4468 18.3253Z" stroke="#00162E" stroke-width="1.2" stroke-miterlimit="10" stroke-linecap="round" stroke-linejoin="round"/>
<path d="M17.6714 4.64664L14.8122 5.91742L16.083 7.18816L13.5415 8.4589" stroke="#00162E" stroke-width="1.2" stroke-miterlimit="10" stroke-linecap="round" stroke-linejoin="round"/>
</svg>
