<svg width="20" height="20" viewBox="0 0 20 20" fill="none" xmlns="http://www.w3.org/2000/svg">
<path d="M1.72537 2.83242C2.39204 -0.0509115 6.73371 -0.0509115 7.39204 2.83242C7.78371 4.52409 6.70871 5.95742 5.77537 6.84909C5.09204 7.49909 4.01704 7.49076 3.33371 6.84909C2.40871 5.95742 1.33371 4.52409 1.72537 2.83242Z" stroke="#00162E" stroke-width="1.2"/>
<path d="M12.5593 12.8324C13.226 9.94909 17.5926 9.94909 18.2593 12.8324C18.651 14.5241 17.576 15.9574 16.6343 16.8491C15.951 17.4991 14.8676 17.4908 14.1843 16.8491C13.2426 15.9574 12.1676 14.5241 12.5593 12.8324Z" stroke="#00162E" stroke-width="1.2"/>
<path d="M9.99942 3.16602H12.2328C13.7744 3.16602 14.4911 5.07435 13.3328 6.09102L6.67443 11.916C5.51609 12.9243 6.23276 14.8327 7.76609 14.8327H9.99942" stroke="#00162E" stroke-width="1.2" stroke-linecap="round" stroke-linejoin="round"/>
<path d="M4.57111 3.58268H4.58074" stroke="#00162E" stroke-width="1.5" stroke-linecap="round" stroke-linejoin="round"/>
<path d="M15.4051 13.5827H15.4147" stroke="#00162E" stroke-width="1.5" stroke-linecap="round" stroke-linejoin="round"/>
</svg>
