<svg width="32" height="32" viewBox="0 0 32 32" fill="none" xmlns="http://www.w3.org/2000/svg">
<circle cx="16" cy="16" r="16" fill="#F8EEC0"/>
<path d="M19.3663 9.09733C19.5785 9.30962 19.6978 9.59752 19.6978 9.8977C19.6978 10.1979 19.5785 10.4858 19.3663 10.6981L13.7625 16.3019L19.3663 21.9056C19.5725 22.1191 19.6866 22.4051 19.684 22.7019C19.6815 22.9988 19.5624 23.2827 19.3525 23.4926C19.1426 23.7025 18.8587 23.8215 18.5618 23.8241C18.265 23.8267 17.9791 23.7126 17.7655 23.5064L11.3614 17.1022C11.1492 16.8899 11.0299 16.602 11.0299 16.3019C11.0299 16.0017 11.1492 15.7138 11.3614 15.5015L17.7655 9.09733C17.9778 8.88509 18.2657 8.76587 18.5659 8.76587C18.8661 8.76587 19.154 8.88509 19.3663 9.09733V9.09733Z" fill="white"/>
</svg>
