<svg width="22" height="22" viewBox="0 0 22 22" fill="none" xmlns="http://www.w3.org/2000/svg">
<path d="M19.0282 4.13654H20.6919" stroke="#00162E" stroke-width="1.2" stroke-miterlimit="10" stroke-linecap="round" stroke-linejoin="round"/>
<path d="M5.13896 3.6138H3.70221C3.17982 3.6138 2.75635 4.03728 2.75635 4.55966V7.2347C2.75635 7.75708 3.17982 8.18056 3.70221 8.18056H9.51799C10.0592 8.18056 10.498 8.61931 10.498 9.16056V11.4603" stroke="#00162E" stroke-width="1.2" stroke-miterlimit="10" stroke-linecap="round" stroke-linejoin="round"/>
<path d="M10.4981 20.57C9.4889 20.57 8.68336 19.7286 8.7273 18.7204L9.04379 11.4598H11.9524L12.2689 18.7204C12.3128 19.7286 11.5073 20.57 10.4981 20.57Z" stroke="#00162E" stroke-width="1.2" stroke-miterlimit="10" stroke-linecap="round" stroke-linejoin="round"/>
<path d="M18.3802 6.75747H6.81493C6.45704 6.75747 6.16693 6.46736 6.16693 6.10947V2.16362C6.16693 1.80573 6.45704 1.51562 6.81493 1.51562H18.3802C18.7381 1.51562 19.0282 1.80573 19.0282 2.16362V6.10947C19.0282 6.46731 18.738 6.75747 18.3802 6.75747Z" stroke="#00162E" stroke-width="1.2" stroke-miterlimit="10" stroke-linecap="round" stroke-linejoin="round"/>
<path d="M16.8162 12.5669C16.7599 11.1931 18.1109 9.62305 18.1109 9.62305C18.1109 9.62305 19.4619 11.1932 19.4056 12.5669C19.3391 14.1907 16.8827 14.1907 16.8162 12.5669Z" stroke="#00162E" stroke-width="1.2" stroke-miterlimit="10" stroke-linecap="round" stroke-linejoin="round"/>
</svg>
