<svg width="27" height="27" viewBox="0 0 27 27" fill="none" xmlns="http://www.w3.org/2000/svg">
<path d="M13.4455 6.36984C11.3303 6.37011 9.23454 7.2792 9.45486 9.09576L9.99486 13.0442C10.0896 13.739 10.5592 14.85 11.2604 14.85H11.3103L11.8846 21.4734C11.9094 21.7715 12.1254 22.0134 12.4246 22.0134H14.5846C14.8838 22.0134 15.0998 21.7715 15.1246 21.4734L15.6989 14.85H15.7491C16.4503 14.85 16.9196 13.739 17.0146 13.0442L17.5546 9.09576C17.6961 7.27758 15.5609 6.3693 13.4455 6.36984Z" fill="#00162E"/>
<path d="M13.5065 13.7451L13.4935 13.7792C13.4978 13.7689 13.5008 13.7584 13.5051 13.7481L13.5065 13.7451Z" fill="#00162E"/>
<path d="M13.5 5.67C15.0657 5.67 16.335 4.40073 16.335 2.835C16.335 1.26927 15.0657 0 13.5 0C11.9343 0 10.665 1.26927 10.665 2.835C10.665 4.40073 11.9343 5.67 13.5 5.67Z" fill="#00162E"/>
<path d="M5 22.5C5 20.567 6.567 19 8.5 19H18.5C20.433 19 22 20.567 22 22.5V22.5C22 24.433 20.433 26 18.5 26H8.5C6.567 26 5 24.433 5 22.5V22.5Z" fill="#00162E"/>
</svg>
